<!--
作成日: 2026-07-04
処理名称: サイトエンブレム（タイプ色リング＋防御シールド）
処理概要: 18タイプのイメージカラーのリングと、防御側の相性倍率を象徴する
          シールド（×2）を組み合わせたエンブレム。ヘッダーロゴおよび
          faviconとして使用する。scripts/generate_icons.mjs により生成。
ファイル名: logo.svg
-->
<svg xmlns="http://www.w3.org/2000/svg" viewBox="0 0 512 512" role="img" aria-label="ポケモンタイプ相性チェッカーのエンブレム">
  <g>
    <path d="M 262.18 20.08 A 236 236 0 0 1 330.88 32.20 L 313.11 85.30 A 180 180 0 0 0 260.71 76.06 Z" fill="#A8A878"><title>ノーマル</title></path>
    <path d="M 342.49 36.42 A 236 236 0 0 1 402.91 71.30 L 368.05 115.13 A 180 180 0 0 0 321.97 88.52 Z" fill="#F08030"><title>ほのお</title></path>
    <path d="M 412.38 79.25 A 236 236 0 0 1 457.22 132.69 L 409.48 161.95 A 180 180 0 0 0 375.27 121.19 Z" fill="#6890F0"><title>みず</title></path>
    <path d="M 463.40 143.39 A 236 236 0 0 1 487.26 208.95 L 432.39 220.11 A 180 180 0 0 0 414.19 170.11 Z" fill="#F8D030"><title>でんき</title></path>
    <path d="M 489.41 221.12 A 236 236 0 0 1 489.41 290.88 L 434.02 282.61 A 180 180 0 0 0 434.02 229.39 Z" fill="#78C850"><title>くさ</title></path>
    <path d="M 487.26 303.05 A 236 236 0 0 1 463.40 368.61 L 414.19 341.89 A 180 180 0 0 0 432.39 291.89 Z" fill="#98D8D8"><title>こおり</title></path>
    <path d="M 457.22 379.31 A 236 236 0 0 1 412.38 432.75 L 375.27 390.81 A 180 180 0 0 0 409.48 350.05 Z" fill="#C03028"><title>かくとう</title></path>
    <path d="M 402.91 440.70 A 236 236 0 0 1 342.49 475.58 L 321.97 423.48 A 180 180 0 0 0 368.05 396.87 Z" fill="#A040A0"><title>どく</title></path>
    <path d="M 330.88 479.80 A 236 236 0 0 1 262.18 491.92 L 260.71 435.94 A 180 180 0 0 0 313.11 426.70 Z" fill="#E0C068"><title>じめん</title></path>
    <path d="M 249.82 491.92 A 236 236 0 0 1 181.12 479.80 L 198.89 426.70 A 180 180 0 0 0 251.29 435.94 Z" fill="#A890F0"><title>ひこう</title></path>
    <path d="M 169.51 475.58 A 236 236 0 0 1 109.09 440.70 L 143.95 396.87 A 180 180 0 0 0 190.03 423.48 Z" fill="#F85888"><title>エスパー</title></path>
    <path d="M 99.62 432.75 A 236 236 0 0 1 54.78 379.31 L 102.52 350.05 A 180 180 0 0 0 136.73 390.81 Z" fill="#A8B820"><title>むし</title></path>
    <path d="M 48.60 368.61 A 236 236 0 0 1 24.74 303.05 L 79.61 291.89 A 180 180 0 0 0 97.81 341.89 Z" fill="#B8A038"><title>いわ</title></path>
    <path d="M 22.59 290.88 A 236 236 0 0 1 22.59 221.12 L 77.98 229.39 A 180 180 0 0 0 77.98 282.61 Z" fill="#705898"><title>ゴースト</title></path>
    <path d="M 24.74 208.95 A 236 236 0 0 1 48.60 143.39 L 97.81 170.11 A 180 180 0 0 0 79.61 220.11 Z" fill="#7038F8"><title>ドラゴン</title></path>
    <path d="M 54.78 132.69 A 236 236 0 0 1 99.62 79.25 L 136.73 121.19 A 180 180 0 0 0 102.52 161.95 Z" fill="#705848"><title>あく</title></path>
    <path d="M 109.09 71.30 A 236 236 0 0 1 169.51 36.42 L 190.03 88.52 A 180 180 0 0 0 143.95 115.13 Z" fill="#B8B8D0"><title>はがね</title></path>
    <path d="M 181.12 32.20 A 236 236 0 0 1 249.82 20.08 L 251.29 76.06 A 180 180 0 0 0 198.89 85.30 Z" fill="#EE99AC"><title>フェアリー</title></path>
  </g>
  <circle cx="256" cy="256" r="168" fill="#f7f9fc"/>
  <path d="M256 138 L352 172 V262 C352 322 312 356 256 378 C200 356 160 322 160 262 V172 Z"
        fill="#2b3240"/>
  <text x="256" y="296" text-anchor="middle" fill="#ffffff"
        font-family="'Segoe UI', 'Hiragino Kaku Gothic ProN', Meiryo, sans-serif"
        font-size="116" font-weight="700">&#215;2</text>
</svg>
